<svg width="123" height="123" viewBox="0 0 123 123" fill="none" xmlns="http://www.w3.org/2000/svg">
<rect width="123" height="123" rx="61.5" fill="#6374CE"/>
<path d="M79.1045 33V92.0522H69.316V78.1765C67.8102 82.9811 65.1211 86.674 61.2489 89.2557C57.4484 91.7653 53.0024 93.0203 47.9109 93.0203C41.0987 93.0203 35.5771 90.8331 31.3462 86.4589C27.1154 82.013 25 75.6666 25 67.4201V33H34.7883V66.4522C34.7883 72.3322 36.2942 76.8858 39.3059 80.1128C42.3176 83.2678 46.4051 84.8454 51.5682 84.8454C56.9464 84.8454 61.2489 83.1244 64.4757 79.6823C67.7027 76.1686 69.316 71.0774 69.316 64.4085V33H79.1045Z" fill="white"/>
<path d="M91.6215 67.9561C99.0352 67.9561 105.046 73.9662 105.046 81.3799C105.046 88.7938 99.0353 94.8047 91.6215 94.8047C84.2078 94.8045 78.1976 88.7936 78.1976 81.3799C78.1979 73.9664 84.2079 67.9563 91.6215 67.9561Z" fill="#FF1650" stroke="#6374CE" stroke-width="3.91264"/>
</svg>
