<svg width="32" height="32" viewBox="0 0 32 32" fill="none" xmlns="http://www.w3.org/2000/svg">
<rect width="32" height="32" rx="16" fill="#6374CE"/>
<path d="M20.5 8.5V24H17.5V20.5C16.8 21.8 16.1 22.7 15.3 23.2C14.5 23.7 13.5 24 12.5 24C10.5 24 9 23.2 8 21.5C7 19.8 6.5 17.5 6.5 14.5V8.5H9V17.5C9 19.2 9.3 20.5 10 21.3C10.7 22.1 11.8 22.5 13.2 22.5C14.8 22.5 16 22 16.8 21C17.6 20 18 18.5 18 16.5V8.5H20.5Z" fill="white"/>
<circle cx="24" cy="18" r="2.5" fill="#FF1650" stroke="#6374CE" stroke-width="1"/>
</svg>
