<svg width="300" height="79" viewBox="0 0 300 79" fill="none" xmlns="http://www.w3.org/2000/svg">
<path d="M29.4255 29.204V58H24.6523V51.2337C23.918 53.5766 22.6067 55.3774 20.7185 56.6363C18.8652 57.8601 16.6972 58.4721 14.2144 58.4721C10.8925 58.4721 8.19996 57.4055 6.13686 55.2725C4.07376 53.1045 3.0422 50.0098 3.0422 45.9885V29.204H7.81532V45.5165C7.81532 48.3838 8.54964 50.6043 10.0183 52.1779C11.4869 53.7164 13.4801 54.4857 15.9978 54.4857C18.6204 54.4857 20.7185 53.6465 22.292 51.968C23.8656 50.2546 24.6523 47.7719 24.6523 44.5199V29.204H29.4255ZM50.8147 53.8039V58H47.248C44.3107 58 42.1077 57.3006 40.6391 55.9019C39.2054 54.5032 38.4885 52.1604 38.4885 48.8734V33.3477H34.1875V29.204H38.4885V22.0181H43.3141V29.204H50.7623V33.3477H43.3141V48.9783C43.3141 50.8316 43.6463 52.1079 44.3107 52.8073C45.0101 53.4717 46.199 53.8039 47.8774 53.8039H50.8147ZM69.6998 28.8368C72.4623 28.8368 74.9275 29.4313 77.0955 30.6202C79.2985 31.8091 81.0119 33.5225 82.2358 35.7604C83.4946 37.9984 84.1241 40.621 84.1241 43.6282C84.1241 46.6354 83.4946 49.258 82.2358 51.496C81.0119 53.699 79.2985 55.3949 77.0955 56.5838C74.9275 57.7727 72.4623 58.3672 69.6998 58.3672C66.9374 58.3672 64.4546 57.7727 62.2517 56.5838C60.0837 55.3949 58.3702 53.699 57.1114 51.496C55.8526 49.258 55.2231 46.6354 55.2231 43.6282C55.2231 40.621 55.8526 37.9984 57.1114 35.7604C58.3702 33.5225 60.0837 31.8091 62.2517 30.6202C64.4546 29.4313 66.9374 28.8368 69.6998 28.8368ZM69.6998 33.0329C67.9864 33.0329 66.3954 33.4176 64.9267 34.1869C63.493 34.9562 62.3216 36.1451 61.4124 37.7536C60.5382 39.3272 60.1011 41.2854 60.1011 43.6282C60.1011 45.9361 60.5382 47.8943 61.4124 49.5028C62.3216 51.0764 63.493 52.2478 64.9267 53.0171C66.3954 53.7864 67.9864 54.171 69.6998 54.171C71.4133 54.171 72.9868 53.7864 74.4205 53.0171C75.8891 52.2478 77.0606 51.0764 77.9348 49.5028C78.8439 47.8943 79.2985 45.9361 79.2985 43.6282C79.2985 41.2854 78.8439 39.3272 77.9348 37.7536C77.0606 36.1451 75.8891 34.9562 74.4205 34.1869C72.9868 33.4176 71.4133 33.0329 69.6998 33.0329ZM106.237 28.8368C108.789 28.8368 111.062 29.4313 113.055 30.6202C115.048 31.8091 116.605 33.5225 117.724 35.7604C118.877 37.9984 119.454 40.621 119.454 43.6282C119.454 46.6354 118.877 49.258 117.724 51.496C116.605 53.699 115.048 55.3949 113.055 56.5838C111.062 57.7727 108.789 58.3672 106.237 58.3672C103.439 58.3672 101.061 57.6678 99.1031 56.2691C97.1799 54.8354 95.8511 52.9646 95.1168 50.6567V71.6375H90.3437V29.204H95.1168V36.5472C95.8511 34.2393 97.1799 32.386 99.1031 30.9873C101.061 29.5536 103.439 28.8368 106.237 28.8368ZM104.873 33.0854C103.02 33.0854 101.341 33.5225 99.8375 34.3967C98.3339 35.2359 97.1624 36.4598 96.3232 38.0683C95.484 39.6768 95.0644 41.5301 95.0644 43.6282C95.0644 45.7263 95.484 47.5796 96.3232 49.1881C97.1624 50.7617 98.3339 51.9855 99.8375 52.8597C101.341 53.7339 103.02 54.171 104.873 54.171C107.845 54.171 110.205 53.2444 111.954 51.3911C113.737 49.5028 114.629 46.9152 114.629 43.6282C114.629 40.3412 113.737 37.7711 111.954 35.9178C110.205 34.0295 107.845 33.0854 104.873 33.0854ZM124.848 20.7592C124.848 19.885 125.145 19.1857 125.74 18.6612C126.334 18.1017 127.121 17.8219 128.1 17.8219C129.079 17.8219 129.866 18.1017 130.46 18.6612C131.055 19.1857 131.352 19.885 131.352 20.7592C131.352 21.6334 131.055 22.3503 130.46 22.9098C129.866 23.4343 129.079 23.6965 128.1 23.6965C127.121 23.6965 126.334 23.4343 125.74 22.9098C125.145 22.3503 124.848 21.6334 124.848 20.7592ZM130.46 29.204V58H125.687V29.204H130.46ZM149.936 28.8368C152.733 28.8368 155.094 29.5362 157.017 30.9349C158.975 32.3336 160.339 34.2044 161.108 36.5472V29.204H165.881V58H161.108V50.6567C160.339 52.9996 158.975 54.8704 157.017 56.2691C155.094 57.6678 152.733 58.3672 149.936 58.3672C147.383 58.3672 145.11 57.7727 143.117 56.5838C141.124 55.3949 139.55 53.699 138.397 51.496C137.278 49.258 136.718 46.6354 136.718 43.6282C136.718 40.621 137.278 37.9984 138.397 35.7604C139.55 33.5225 141.124 31.8091 143.117 30.6202C145.11 29.4313 147.383 28.8368 149.936 28.8368ZM151.3 33.0854C148.362 33.0854 146.002 34.0295 144.219 35.9178C142.47 37.7711 141.596 40.3412 141.596 43.6282C141.596 46.9152 142.47 49.5028 144.219 51.3911C146.002 53.2444 148.362 54.171 151.3 54.171C153.188 54.171 154.866 53.7339 156.335 52.8597C157.839 51.9855 159.01 50.7617 159.849 49.1881C160.689 47.5796 161.108 45.7263 161.108 43.6282C161.108 41.5301 160.689 39.6768 159.849 38.0683C159.01 36.4598 157.839 35.2359 156.335 34.3967C154.866 33.5225 153.188 33.0854 151.3 33.0854Z" fill="white"/>
<path d="M215.302 28.9951C217.924 28.9951 220.232 29.5896 222.225 30.7784C224.253 31.9323 225.827 33.6282 226.946 35.8661C228.099 38.069 228.676 40.674 228.676 43.6811C228.676 46.6533 228.099 49.2583 226.946 51.4962C225.827 53.6991 224.253 55.395 222.225 56.5838C220.197 57.7727 217.889 58.3672 215.302 58.3672C212.364 58.3672 209.882 57.6154 207.854 56.1118C205.826 54.6082 204.427 52.6151 203.658 50.1325V71.5321H199.986V29.3623H203.658V37.2298C204.427 34.7472 205.826 32.7541 207.854 31.2505C209.882 29.7469 212.364 28.9951 215.302 28.9951ZM214.305 32.247C212.277 32.247 210.441 32.7191 208.798 33.6632C207.189 34.6073 205.931 35.9535 205.021 37.7018C204.112 39.4152 203.658 41.4083 203.658 43.6811C203.658 45.954 204.112 47.9646 205.021 49.7129C205.931 51.4263 207.189 52.755 208.798 53.6991C210.441 54.6432 212.277 55.1152 214.305 55.1152C217.557 55.1152 220.144 54.1012 222.068 52.0731C223.991 50.0101 224.952 47.2128 224.952 43.6811C224.952 40.1495 223.991 37.3697 222.068 35.3416C220.144 33.2786 217.557 32.247 214.305 32.247ZM249.596 28.8378C252.918 28.8378 255.61 29.9043 257.673 32.0372C259.771 34.1352 260.82 37.2298 260.82 41.3209V58H257.201V41.5831C257.201 38.4711 256.415 36.0934 254.841 34.4499C253.268 32.7715 251.117 31.9323 248.39 31.9323C245.522 31.9323 243.232 32.859 241.519 34.7122C239.84 36.5305 239.001 39.2229 239.001 42.7895V58H235.277V19.187H239.001V36.3906C239.736 33.9429 241.064 32.0722 242.987 30.7784C244.911 29.4847 247.113 28.8378 249.596 28.8378ZM283.886 28.9951C286.509 28.9951 288.816 29.5896 290.81 30.7784C292.838 31.9323 294.411 33.6282 295.53 35.8661C296.684 38.069 297.261 40.674 297.261 43.6811C297.261 46.6533 296.684 49.2583 295.53 51.4962C294.411 53.6991 292.838 55.395 290.81 56.5838C288.781 57.7727 286.474 58.3672 283.886 58.3672C280.949 58.3672 278.466 57.6154 276.438 56.1118C274.41 54.6082 273.011 52.6151 272.242 50.1325V71.5321H268.571V29.3623H272.242V37.2298C273.011 34.7472 274.41 32.7541 276.438 31.2505C278.466 29.7469 280.949 28.9951 283.886 28.9951ZM282.89 32.247C280.862 32.247 279.026 32.7191 277.382 33.6632C275.774 34.6073 274.515 35.9535 273.606 37.7018C272.697 39.4152 272.242 41.4083 272.242 43.6811C272.242 45.954 272.697 47.9646 273.606 49.7129C274.515 51.4263 275.774 52.755 277.382 53.6991C279.026 54.6432 280.862 55.1152 282.89 55.1152C286.141 55.1152 288.729 54.1012 290.652 52.0731C292.575 50.0101 293.537 47.2128 293.537 43.6811C293.537 40.1495 292.575 37.3697 290.652 35.3416C288.729 33.2786 286.141 32.247 282.89 32.247Z" fill="white"/>
<circle cx="182.5" cy="45" r="7.5" fill="#FF1650"/>
</svg>
